<?xml version="1.0" ?><svg data-name="Layer 3" id="Layer_3" viewBox="0 0 32 32" xmlns="http://www.w3.org/2000/svg"><defs><style>.cls-1,.cls-2{fill:none;stroke:#0832ff;stroke-linecap:round;stroke-linejoin:round;}.cls-1{stroke-width:2px;}</style></defs><title/><path class="cls-1" d="M19,23H17.92L13,26V23a8,8,0,0,1-8-8H5a8,8,0,0,1,8-8h6a8,8,0,0,1,8,8h0A8,8,0,0,1,19,23Z"/><path class="cls-1" d="M19,7c4.42,0,7,3.58,7,8h0c0,4.42-2.58,8-7,8"/><line class="cls-2" x1="12.5" x2="19.5" y1="13.5" y2="13.5"/><line class="cls-2" x1="12.5" x2="19.5" y1="16.5" y2="16.5"/></svg>