<?xml version="1.0" standalone="no"?>
<!DOCTYPE svg PUBLIC "-//W3C//DTD SVG 20010904//EN"
 "http://www.w3.org/TR/2001/REC-SVG-20010904/DTD/svg10.dtd">
<svg version="1.0" xmlns="http://www.w3.org/2000/svg"
 width="700.000000pt" height="700.000000pt" viewBox="0 0 700.000000 700.000000"
 preserveAspectRatio="xMidYMid meet">
<metadata>
Created by potrace 1.14, written by Peter Selinger 2001-2017
</metadata>
<g transform="translate(0.000000,700.000000) scale(0.100000,-0.100000)"
fill="#000000" stroke="none">
<path d="M2728 5685 c-2 -1 -37 -5 -78 -9 -340 -27 -691 -164 -990 -386 -41
-30 -84 -63 -95 -73 -321 -294 -520 -609 -620 -982 -31 -118 -34 -128 -50
-235 -29 -185 -22 -459 16 -655 36 -181 127 -438 197 -554 15 -26 30 -54 34
-63 12 -29 102 -160 165 -239 281 -351 679 -597 1124 -693 63 -14 131 -26 152
-28 20 -1 38 -5 38 -8 1 -3 2 -115 4 -250 2 -257 5 -277 50 -336 26 -34 90
-69 139 -78 64 -11 119 14 385 177 145 89 280 171 300 183 52 30 399 242 443
270 34 21 47 23 195 25 256 3 418 28 636 100 439 144 816 444 1063 844 57 91
144 265 144 287 0 8 4 18 9 24 19 20 88 263 107 374 16 99 28 229 28 325 0 86
-12 278 -19 298 -2 6 -6 28 -9 47 -54 348 -231 713 -478 985 -75 83 -190 191
-253 237 -5 4 -23 18 -40 31 -82 65 -270 174 -385 222 -157 67 -367 126 -535
151 -43 6 -1670 15 -1677 9z m1691 -459 c501 -101 853 -462 990 -1016 11 -41
22 -91 25 -110 3 -19 8 -46 11 -59 27 -139 27 -501 0 -642 -3 -13 -7 -41 -10
-62 -4 -22 -11 -51 -16 -66 -6 -14 -10 -28 -10 -31 3 -17 -16 -87 -44 -165
-169 -473 -503 -780 -935 -859 -125 -22 -179 -26 -372 -28 -95 0 -186 -6 -203
-11 -16 -6 -122 -67 -235 -136 -113 -68 -281 -171 -375 -228 -93 -57 -172
-103 -175 -103 -4 0 -7 61 -7 135 -1 158 -7 197 -37 241 -49 72 -111 100 -228
103 -42 1 -87 4 -100 6 -12 2 -48 6 -78 10 -242 30 -517 149 -720 310 -382
304 -592 745 -585 1227 1 68 5 143 9 168 4 25 9 59 12 75 21 137 94 345 162
462 15 27 33 59 40 73 23 45 127 179 193 248 114 120 228 208 379 295 112 64
353 149 465 163 28 3 68 10 90 14 22 4 407 7 855 6 721 -2 825 -5 899 -20z"/>
<path d="M2676 4135 c-18 -12 -36 -36 -44 -59 -11 -34 -10 -43 6 -75 35 -67
-5 -64 846 -63 424 0 783 1 798 1 31 1 83 49 90 83 7 36 -9 82 -38 109 l-26
24 -800 1 c-796 0 -801 0 -832 -21z"/>
<path d="M2678 3483 c-71 -44 -67 -152 6 -187 26 -12 150 -14 811 -15 499 0
791 3 812 10 22 7 37 22 51 50 28 56 14 107 -38 142 -22 16 -89 17 -820 17
-724 -1 -797 -2 -822 -17z"/>
</g>
</svg>
