<svg id="Layer_1" data-name="Layer 1" xmlns="http://www.w3.org/2000/svg" xmlns:xlink="http://www.w3.org/1999/xlink" viewBox="0 0 57.3 57.3"><defs><style>.cls-1{fill:url(#linear-gradient);}.cls-2{fill:url(#linear-gradient-2);}.cls-3{fill:url(#linear-gradient-3);}.cls-4{fill:#fff;}</style><linearGradient id="linear-gradient" x1="14.39" y1="2.39" x2="54.9" y2="42.91" gradientUnits="userSpaceOnUse"><stop offset="0" stop-color="#00a4ff"/><stop offset="1" stop-color="#006fff"/></linearGradient><linearGradient id="linear-gradient-2" x1="8.39" y1="8.39" x2="48.91" y2="48.91" xlink:href="#linear-gradient"/><linearGradient id="linear-gradient-3" x1="2.39" y1="14.39" x2="42.91" y2="54.91" xlink:href="#linear-gradient"/></defs><path class="cls-1" d="M45.27,24.05a6.55,6.55,0,0,0-2.1-1.4,6.44,6.44,0,0,0-2.54-.51h-6.5v6.54a6.27,6.27,0,0,0,.51,2.52A6.49,6.49,0,0,0,36,33.27a6.65,6.65,0,0,0,2.06,1.4,6.32,6.32,0,0,0,2.53.51,6.44,6.44,0,0,0,2.54-.51,6.55,6.55,0,0,0,2.1-1.4,6.46,6.46,0,0,0,1.39-2.06,6.31,6.31,0,0,0,.51-2.52,6.45,6.45,0,0,0-.51-2.55A6.37,6.37,0,0,0,45.27,24.05Z"/><path class="cls-2" d="M28.65,0A28.65,28.65,0,1,0,57.3,28.65,28.65,28.65,0,0,0,28.65,0ZM27.43,39.43H16.67A10.81,10.81,0,0,1,5.84,28.61a10.55,10.55,0,0,1,.84-4.21A10.72,10.72,0,0,1,9,21a11.27,11.27,0,0,1,3.47-2.31,10.74,10.74,0,0,1,4.19-.84,10.55,10.55,0,0,1,4.21.84A11,11,0,0,1,24.29,21,11.11,11.11,0,0,1,26.6,24.4a10.54,10.54,0,0,1,.83,4.21Zm20.85-3.12a11.1,11.1,0,0,1-3.46,2.31,10.63,10.63,0,0,1-4.19.84,10.48,10.48,0,0,1-4.21-.84A10.81,10.81,0,0,1,30.7,32.9a10.55,10.55,0,0,1-.84-4.21V17.87H40.63a10.55,10.55,0,0,1,4.19.83A10.8,10.8,0,0,1,48.28,21a10.83,10.83,0,0,1,3.18,7.65,10.6,10.6,0,0,1-3.18,7.62Z"/><path class="cls-3" d="M21.25,24a6.65,6.65,0,0,0-2.06-1.4,6.31,6.31,0,0,0-2.53-.5A6.49,6.49,0,0,0,12,24a6.58,6.58,0,0,0-1.4,2.07,6.4,6.4,0,0,0-.5,2.52,6.62,6.62,0,0,0,.5,2.55,6.53,6.53,0,0,0,6,4h6.5V28.61a6.27,6.27,0,0,0-.51-2.52A6.42,6.42,0,0,0,21.25,24Z"/><path class="cls-4" d="M50.61,24.5A10.51,10.51,0,0,0,48.28,21a10.8,10.8,0,0,0-3.46-2.34,10.55,10.55,0,0,0-4.19-.83H29.86V28.69a10.55,10.55,0,0,0,.84,4.21,10.81,10.81,0,0,0,5.72,5.72,10.48,10.48,0,0,0,4.21.84,10.63,10.63,0,0,0,4.19-.84,11.1,11.1,0,0,0,3.46-2.31,10.6,10.6,0,0,0,3.18-7.62A10.57,10.57,0,0,0,50.61,24.5Zm-4,6.71a6.46,6.46,0,0,1-1.39,2.06,6.55,6.55,0,0,1-2.1,1.4,6.44,6.44,0,0,1-2.54.51,6.32,6.32,0,0,1-2.53-.51A6.65,6.65,0,0,1,36,33.27a6.49,6.49,0,0,1-1.4-2.06,6.27,6.27,0,0,1-.51-2.52V22.15h6.5a6.44,6.44,0,0,1,2.54.51,6.55,6.55,0,0,1,2.1,1.4,6.37,6.37,0,0,1,1.39,2.09,6.45,6.45,0,0,1,.51,2.55A6.31,6.31,0,0,1,46.66,31.21Z"/><path class="cls-4" d="M24.29,21a11,11,0,0,0-3.41-2.31,10.55,10.55,0,0,0-4.21-.84,10.74,10.74,0,0,0-4.19.84A11.27,11.27,0,0,0,9,21,10.72,10.72,0,0,0,6.68,24.4a10.55,10.55,0,0,0-.84,4.21A10.79,10.79,0,0,0,16.67,39.43H27.43V28.61a10.54,10.54,0,0,0-.83-4.21A11.11,11.11,0,0,0,24.29,21ZM23.16,35.15h-6.5a6.51,6.51,0,0,1-6-4,6.62,6.62,0,0,1-.5-2.55,6.4,6.4,0,0,1,.5-2.52A6.58,6.58,0,0,1,12,24a6.49,6.49,0,0,1,4.64-1.9,6.31,6.31,0,0,1,2.53.5A6.65,6.65,0,0,1,21.25,24a6.42,6.42,0,0,1,1.4,2.07,6.27,6.27,0,0,1,.51,2.52Z"/></svg>